<svg width="604" height="340" viewBox="0 0 604 340" fill="none" xmlns="http://www.w3.org/2000/svg">
<g clip-path="url(#clip0_63_3945)">
<mask id="mask0_63_3945" style="mask-type:luminance" maskUnits="userSpaceOnUse" x="0" y="-4" width="604" height="342">
<path d="M604 -3.07004H0V337.93H604V-3.07004Z" fill="white"/>
</mask>
<g mask="url(#mask0_63_3945)">
<path fill-rule="evenodd" clip-rule="evenodd" d="M11.7688 -1C11.7688 -1 11.1132 4.83691 10.2633 14.4156C7.23545 48.5406 1.74078 130.157 14.6324 164.534C31.1426 208.562 57.5163 210.504 57.5163 210.504C57.5163 210.504 188.312 122.018 187.668 124.823C187.025 127.629 185.524 114.032 170.515 88.7814C155.505 63.5304 155.38 11.3018 155.38 -1" fill="white"/>
<path fill-rule="evenodd" clip-rule="evenodd" d="M11.8267 -4.2185C13.6032 -4.02463 14.8863 -2.4266 14.6925 -0.649208L11.4759 -1.00025L8.25923 -1.35129C8.453 -3.12868 10.0502 -4.41237 11.8267 -4.2185ZM65.5569 210.462C65.4817 210.445 65.4027 210.427 65.3199 210.407C64.4303 210.197 63.1103 209.845 61.4605 209.288C58.1594 208.172 53.5511 206.237 48.4331 202.982C38.2337 196.494 25.9026 184.694 17.8658 163.391C13.8916 152.856 11.6249 137.408 10.5354 119.894C9.45042 102.455 9.5465 83.2523 10.1623 65.3681C10.7779 47.4924 11.911 30.9806 12.8906 18.9357C13.3803 12.9145 13.8313 8.01274 14.1597 4.61867C14.3239 2.92172 14.4574 1.60185 14.5497 0.707637C14.5959 0.260539 14.6317 -0.0801311 14.656 -0.308299L14.6834 -0.565413L14.6925 -0.649208C14.6926 -0.64986 14.6925 -0.649208 11.4759 -1.00025C8.25923 -1.35129 8.25936 -1.35249 8.25923 -1.35129L8.2492 -1.25862L8.22077 -0.99239C8.19587 -0.758067 8.15935 -0.411072 8.11254 0.0425229C8.0189 0.949697 7.88401 2.28333 7.71843 3.99481C7.38725 7.41763 6.93317 12.3526 6.44048 18.4106C5.45531 30.5239 4.31474 47.1408 3.69476 65.1452C3.07505 83.1413 2.97369 102.571 4.07642 120.297C5.17451 137.947 7.48065 154.198 11.8113 165.677C20.3841 188.401 33.683 201.271 44.961 208.445C50.5818 212.021 55.6742 214.166 59.389 215.423C61.2472 216.051 62.7641 216.457 63.8342 216.709C64.3696 216.836 64.7937 216.923 65.0936 216.981C65.2437 217.009 65.3626 217.031 65.4489 217.046L65.5537 217.063L65.5873 217.07L65.6044 217.072C65.6063 217.072 65.6085 217.072 66.0984 213.873L65.6085 217.072C66.3221 217.182 67.0518 217.05 67.6815 216.696L66.0984 213.873C67.6815 216.696 67.6804 216.696 67.6815 216.696L67.6878 216.692L68.0504 216.489C68.2926 216.353 68.6514 216.15 69.1188 215.887C70.0539 215.358 71.4239 214.582 73.166 213.591C76.6503 211.608 81.624 208.763 87.5846 205.31C99.5039 198.405 115.381 189.062 131.194 179.324C146.992 169.594 162.787 159.432 174.515 150.893C180.365 146.634 185.299 142.711 188.729 139.4C190.434 137.754 191.874 136.159 192.869 134.67C193.756 133.342 194.776 131.396 194.399 129.292C192.03 116.067 185.276 103.688 170.253 78.5661C163.124 66.6447 160.417 50.0766 159.578 34.5827C158.979 23.5341 159.332 13.5158 159.587 6.29932C159.691 3.36217 159.778 0.889166 159.778 -1.00025C159.778 -2.78818 158.329 -4.2376 156.542 -4.2376C154.755 -4.2376 153.306 -2.78818 153.306 -1.00025C153.306 0.589381 153.227 2.84026 153.131 5.59531C152.877 12.8406 152.5 23.5725 153.116 34.9332C153.968 50.6652 156.729 68.5603 164.7 81.8902C179.768 107.088 185.822 118.434 187.983 130.18C187.937 130.301 187.813 130.587 187.489 131.073C186.864 132.007 185.798 133.233 184.236 134.74C181.13 137.738 176.482 141.454 170.708 145.658C159.187 154.046 143.563 164.103 127.802 173.81C112.055 183.507 96.2324 192.818 84.342 199.707C78.3978 203.15 73.4389 205.987 69.967 207.963C68.2309 208.95 66.867 209.722 65.9375 210.248C65.8011 210.325 65.6743 210.396 65.5569 210.462Z" fill="#17171D"/>
<path fill-rule="evenodd" clip-rule="evenodd" d="M190.026 127.988C183.537 120.49 170.396 103.816 107.193 140.937C43.9892 178.058 51.3235 205.899 58.6575 210.863C65.9918 215.829 82.6016 222.951 147.315 196.619C212.028 170.289 196.515 135.486 190.026 127.988Z" fill="white"/>
<path fill-rule="evenodd" clip-rule="evenodd" d="M192.189 125.541C192.286 125.653 192.38 125.763 192.472 125.869C196.245 130.228 202.233 141.873 198.501 156.065C194.735 170.386 181.363 186.261 148.534 199.618C116.045 212.837 95.3454 217.784 81.6876 218.708C67.831 219.644 61.1262 216.444 56.8445 213.544C51.4549 209.896 47.978 199.787 53.4923 186.701C59.0338 173.552 73.6896 156.861 105.555 138.145C137.302 119.499 157.055 113.993 170.003 114.496C176.569 114.751 181.364 116.55 184.998 118.914C188.363 121.103 190.615 123.715 192.189 125.541ZM169.752 120.966C158.706 120.537 140.287 125.254 108.831 143.729C77.4926 162.135 64.2139 177.925 59.4553 189.217C54.6694 200.574 58.5264 206.866 60.4709 208.182C63.5234 210.248 68.791 213.09 81.251 212.247C93.91 211.391 113.872 206.732 146.096 193.62C177.981 180.647 189.208 165.956 192.242 154.418C195.31 142.752 190.296 133.246 187.58 130.107C187.509 130.025 187.437 129.942 187.365 129.859C185.767 128.01 184.046 126.018 181.47 124.342C178.84 122.631 175.182 121.176 169.752 120.966Z" fill="#17171D"/>
<path fill-rule="evenodd" clip-rule="evenodd" d="M256.999 68.43C260.675 67.7872 313.189 60.885 389.133 151.004C460.869 236.129 576.25 226.337 597.453 223.54C598.156 223.445 598.684 224.738 598.13 225.178L566.856 250.121C566.364 250.513 566.45 251.286 567.022 251.551C571.327 253.565 586.361 260.549 603.38 267.95C604.086 268.254 604.125 269.234 603.398 269.486C587.204 275.093 473.885 312.496 410.914 284.121C342.987 253.509 313.348 221.058 275.316 189.479C237.863 158.384 215.798 142.632 187.671 135.186C187.671 135.186 241.578 84.0732 254.204 71.2475C255.968 69.4553 256.982 68.4332 256.999 68.43Z" fill="white"/>
<path fill-rule="evenodd" clip-rule="evenodd" d="M256.999 68.43C260.675 67.7872 313.189 60.885 389.133 151.004C460.869 236.129 576.25 226.337 597.453 223.54C598.156 223.445 598.684 224.738 598.13 225.178L566.856 250.121C566.364 250.513 566.45 251.286 567.022 251.551C571.327 253.565 586.361 260.549 603.38 267.95C604.086 268.254 604.125 269.234 603.398 269.486C587.204 275.093 473.885 312.496 410.914 284.121C342.987 253.509 313.348 221.058 275.316 189.479C237.863 158.384 215.798 142.632 187.671 135.186C187.671 135.186 241.578 84.0732 254.204 71.2475C255.968 69.4553 256.982 68.4332 256.999 68.43Z" fill="#EC3750"/>
<path fill-rule="evenodd" clip-rule="evenodd" d="M588.638 224.468C589.805 224.371 590.897 224.272 591.909 224.172C593.872 223.978 595.539 223.786 596.883 223.613M588.638 224.468C554.062 227.345 453.841 227.789 389.133 151.004C313.189 60.885 260.675 67.7872 256.999 68.43C256.982 68.4332 255.968 69.4553 254.204 71.2475C244.046 81.5662 207.167 116.667 193.139 129.995C189.731 133.233 187.671 135.186 187.671 135.186C190.101 135.829 192.486 136.535 194.84 137.306C219.726 145.468 241.099 161.071 275.316 189.479C282.49 195.437 289.367 201.426 296.259 207.428C325.894 233.237 355.803 259.284 410.914 284.121C467.862 309.783 565.986 281.648 596.214 271.884C596.859 271.675 597.472 271.474 598.054 271.284C599.901 270.68 601.424 270.164 602.593 269.765L602.6 269.763C602.886 269.663 603.154 269.571 603.398 269.486C604.125 269.234 604.086 268.254 603.38 267.95C603.178 267.863 602.977 267.775 602.774 267.686H602.772C601.271 267.032 599.784 266.381 598.322 265.738C597.731 265.479 597.142 265.22 596.557 264.961C586.673 260.597 577.954 256.615 572.343 254.025C572.253 253.982 572.162 253.939 572.072 253.898C570.702 253.265 569.526 252.719 568.575 252.277L568.573 252.275C567.96 251.99 567.44 251.748 567.022 251.551C566.45 251.286 566.364 250.513 566.856 250.121L571.437 246.467M564.284 257.42C559.282 255.087 558.643 248.396 562.817 245.062L562.822 245.057L579.79 231.525C563.124 232.3 538.498 231.927 511.012 226.6C469.607 218.574 421.294 199.213 384.184 155.177C317.16 75.6428 269.772 73.982 259.974 74.6139C259.637 74.956 259.249 75.3495 258.813 75.7913C252.413 82.2929 235.693 98.3605 220.671 112.709C213.139 119.905 206.002 126.698 200.749 131.693C200.541 131.891 200.335 132.086 200.133 132.278C224.944 141.146 246.688 157.297 279.449 184.497C286.766 190.572 293.729 196.635 300.673 202.68C330.234 228.417 359.395 253.803 413.571 278.219C443.159 291.55 485.533 289.644 523.611 283.165C549.497 278.76 572.686 272.374 587.258 267.913C576.183 262.958 567.421 258.885 564.284 257.42Z" fill="#17171D"/>
<path fill-rule="evenodd" clip-rule="evenodd" d="M571.437 246.467L598.13 225.178C598.13 225.178 598.607 224.535 598.13 223.952C597.653 223.369 596.883 223.613 596.883 223.613C595.539 223.786 593.872 223.978 591.909 224.172C590.897 224.272 589.805 224.371 588.638 224.468C554.062 227.345 453.841 227.789 389.133 151.004C313.189 60.885 260.675 67.7872 256.999 68.43C256.982 68.4332 255.968 69.4553 254.204 71.2475C244.046 81.5662 207.167 116.667 193.139 129.995C189.731 133.233 187.671 135.186 187.671 135.186C190.101 135.829 192.486 136.535 194.84 137.306C219.726 145.468 241.099 161.071 275.316 189.479C282.49 195.437 289.367 201.426 296.259 207.428C325.894 233.237 355.803 259.284 410.914 284.121C467.862 309.783 565.986 281.648 596.214 271.884C596.859 271.675 597.472 271.474 598.054 271.284C599.901 270.68 601.424 270.164 602.593 269.765L602.6 269.763C602.886 269.663 603.154 269.571 603.398 269.486C604.125 269.234 604.086 268.254 603.38 267.95L602.774 267.686H602.772C601.271 267.032 599.784 266.381 598.322 265.738C597.731 265.479 597.142 265.22 596.557 264.961C586.673 260.597 577.954 256.615 572.343 254.025L572.072 253.898C570.702 253.265 569.526 252.719 568.575 252.277L568.573 252.275C567.96 251.99 567.44 251.748 567.022 251.551C566.45 251.286 566.364 250.513 566.856 250.121L571.437 246.467ZM564.284 257.42C559.282 255.087 558.643 248.396 562.817 245.062L562.822 245.057L579.79 231.525C563.124 232.3 538.498 231.927 511.012 226.6C469.607 218.574 421.294 199.213 384.184 155.177C317.16 75.6428 269.772 73.982 259.974 74.6139C259.637 74.956 259.249 75.3495 258.813 75.7913C252.413 82.2929 235.693 98.3605 220.671 112.709C213.139 119.905 206.002 126.698 200.749 131.693L200.133 132.278C224.944 141.146 246.688 157.297 279.449 184.497C286.766 190.572 293.729 196.635 300.673 202.68C330.234 228.417 359.395 253.803 413.571 278.219C443.159 291.55 485.533 289.644 523.611 283.165C549.497 278.76 572.686 272.374 587.258 267.913C576.183 262.958 567.421 258.885 564.284 257.42Z" fill="#17171D"/>
<path fill-rule="evenodd" clip-rule="evenodd" d="M274.154 95.2969C270.497 100.663 264.008 109.789 254.021 120.859C236.091 137.611 252.338 140.882 260.417 134.205C265.05 130.596 269.936 126.616 269.936 126.616L280.888 137.659C280.888 137.659 277.107 143.211 273.772 147.709C263.786 158.78 276.608 162.69 284.268 154.638C287.974 150.394 304.17 132.995 310.976 123.001C316.994 117.356 309.956 106.552 300.423 115.762C296.169 118.816 288.209 126.117 288.209 126.117C288.209 126.117 279.098 117.152 279.165 116.656C279.238 115.35 281.872 113.082 283.138 110.422C290.839 91.5398 279.07 88.0798 274.154 95.2969Z" fill="white"/>
<path fill-rule="evenodd" clip-rule="evenodd" d="M324.857 136.925C331.248 131.731 335.623 132.349 338.363 133.952C339.56 134.614 340.11 137.9 340.308 140.908C337.34 158.789 316.539 184.76 314.311 186.131C306.351 191.503 298.898 186.449 305.591 179.787C309.228 175.545 312.764 171.794 312.764 171.794L302.822 165.907C287.4 178.189 283.019 168.161 290.39 163.176C298.589 157.138 316.28 143.802 324.857 136.925ZM312.147 155.915L321.673 162.327C321.673 162.327 332.724 145.439 328.638 145.905L312.147 155.915Z" fill="white"/>
<path fill-rule="evenodd" clip-rule="evenodd" d="M372.866 173.908C375.964 170.673 377.045 160.686 366.47 157.668C352.054 151.296 335.742 174.244 335.742 174.244C335.742 174.244 327.862 185.368 327.888 195.381C327.704 204.941 336.001 208.711 337.524 209.641C348.232 211.054 347.833 203.311 346.31 202.383C344.306 201.352 341.368 200.434 339.946 197.585C337.515 192.791 341.711 185.291 344.431 181.466C349.556 175.283 360.163 163.196 365.465 169.712C367.208 176.815 371.177 175.702 372.866 173.908Z" fill="white"/>
<path fill-rule="evenodd" clip-rule="evenodd" d="M382.283 177.625C376.279 184.206 375.785 193.764 362.855 205.612C359.73 208.521 353.073 213.44 352.214 214.177C345.73 219.234 351.077 226.346 364.122 218.282C367.213 216.487 372.358 210.642 372.358 210.642L375.934 211.793C375.934 211.793 373.011 226.235 371.171 232.156C369.463 237.901 377.666 245.303 382.589 234.737C383.887 230.938 384.837 225.441 385.268 218.11C385.268 218.11 385.771 212.824 384.53 211.549C384.53 211.549 400.021 205.724 402.901 202.052C405.916 198.206 405.323 194.32 393.776 197.61C382.233 200.902 380.244 202.724 380.244 202.724C380.244 202.724 386.241 194.719 389.08 187.887C393.017 181.081 387.322 172.268 382.283 177.625Z" fill="white"/>
<path fill-rule="evenodd" clip-rule="evenodd" d="M430.192 215.459C425 217.402 419.732 223.067 415.431 233.293C409.136 248.614 411.483 260.105 422.931 263.186C434.383 266.268 435.339 257.43 434.472 256.736C433.777 256.174 433.984 255.179 428.87 254.854C423.748 254.528 421.32 251.12 421.574 243.175C421.794 237.823 424.771 228.571 430.278 225.135C431.918 224.12 433.029 224.142 433.656 224.064C436.165 223.749 437.658 225.823 437.869 226.279C441.582 232.753 444.651 228.819 444.453 224C443.038 216.752 438.378 213.301 430.192 215.459Z" fill="white"/>
<path fill-rule="evenodd" clip-rule="evenodd" d="M453.785 227.746C456.311 221.992 464.212 220.24 460.521 233.99C459.363 243.428 451.502 259.14 452.068 261.177C452.633 263.215 462.735 265.28 465.595 265.561C468.451 265.845 472.53 269.003 470.38 271.025C468.397 273.188 465.921 272.361 465.295 272.437C464.67 272.512 441.178 269.318 442.248 264.879C443.323 260.441 444.121 258.536 446.483 251.217C448.847 243.896 451.257 233.5 453.785 227.746Z" fill="white"/>
<path fill-rule="evenodd" clip-rule="evenodd" d="M480.751 233.351C482.164 229.004 487.526 228.376 488.012 233.945C488.346 238.244 483.801 254.208 484.051 261.894C484.593 265.202 487.863 267.231 490.555 265.63C494.084 262.966 496.664 253.503 498.657 245.873C499.339 242.098 499.531 239.062 500.435 237.188C504.05 231.139 508.485 234.959 507.929 242.578C506.639 250.766 503.409 263.478 500.484 267.196C497.697 270.738 494.39 275.305 488.67 274.209C487.194 273.9 475.295 270.475 476.872 256.468C478.865 241.928 479.336 237.696 480.751 233.351Z" fill="white"/>
<path fill-rule="evenodd" clip-rule="evenodd" d="M521.23 236.826C529.975 235.768 535.772 236.666 539.145 239.936C540.85 242.446 540.582 247.118 538.403 250.261C536.324 252.913 534.001 254.791 534.001 254.791C537.896 257.04 539.048 262.457 537.424 268.135C535.802 273.814 528.526 276.565 517.801 275.467C514.258 274.936 510.924 273.421 511.267 272.258C512.132 270.073 515.684 241.017 515.684 241.017C516.133 239.362 516.06 237.294 521.23 236.826ZM522.039 242.647L521.849 252.264C521.849 252.264 531.708 252.669 532.741 247.749C533.77 242.824 527.316 243.128 522.039 242.647ZM520.232 259.017C520.232 259.017 518.135 269.987 518.238 269.495C518.48 268.826 531.798 271.899 532.059 264.348C532.32 256.8 520.232 259.017 520.232 259.017Z" fill="white"/>
<path d="M194.143 128.494L103.543 215.604L110.832 218.852L199.536 132.81L194.143 128.494Z" fill="#17171D"/>
<path fill-rule="evenodd" clip-rule="evenodd" d="M161.785 155.812C163.295 159.481 177.964 174.373 169.982 176.531C162.001 178.689 164.805 197.034 180.552 192.933C196.299 188.833 201.26 168.114 186.16 159.481C171.061 150.848 161.785 155.812 161.785 155.812Z" fill="white"/>
<path fill-rule="evenodd" clip-rule="evenodd" d="M133.742 175.236C135.252 178.905 149.921 193.797 141.939 195.955C133.958 198.113 136.762 216.459 152.509 212.357C168.256 208.257 173.217 187.538 158.117 178.905C143.018 170.272 133.742 175.236 133.742 175.236Z" fill="white"/>
<path fill-rule="evenodd" clip-rule="evenodd" d="M105.699 194.66C107.209 198.329 121.878 213.221 113.896 215.38C105.915 217.538 108.719 235.883 124.466 231.782C140.213 227.682 145.174 206.962 130.075 198.329C114.975 189.696 105.699 194.66 105.699 194.66Z" fill="white"/>
<path fill-rule="evenodd" clip-rule="evenodd" d="M168.186 151.174C173.018 150.988 179.708 152.064 187.766 156.67C196.593 161.717 199.67 170.477 198.099 178.527C196.55 186.469 190.494 193.689 181.367 196.066C176.823 197.249 172.868 196.89 169.688 195.299C166.526 193.717 164.438 191.071 163.349 188.242C162.275 185.451 162.113 182.331 162.964 179.613C163.824 176.867 165.82 174.323 169.087 173.42C169.086 173.414 169.085 173.408 169.084 173.402C168.923 172.374 168.137 170.693 166.72 168.488C165.445 166.502 163.909 164.459 162.49 162.573C162.406 162.461 162.322 162.35 162.239 162.24C161.513 161.274 160.812 160.336 160.242 159.515C159.715 158.757 159.131 157.865 158.793 157.045C158.161 155.508 158.794 153.741 160.259 152.957L161.785 155.812C160.259 152.957 160.263 152.955 160.263 152.955L160.267 152.953L160.276 152.948L160.297 152.937L160.35 152.91C160.39 152.89 160.439 152.866 160.498 152.838C160.615 152.782 160.77 152.711 160.961 152.63C161.344 152.47 161.874 152.27 162.544 152.069C163.885 151.668 165.786 151.267 168.186 151.174ZM166.968 157.757C167.111 157.948 167.259 158.145 167.411 158.348C167.504 158.471 167.598 158.596 167.693 158.723C169.082 160.568 170.755 162.791 172.165 164.988C173.607 167.234 175.086 169.91 175.477 172.396C175.682 173.699 175.646 175.306 174.782 176.795C173.884 178.345 172.409 179.228 170.826 179.656C170.132 179.844 169.503 180.39 169.14 181.549C168.764 182.749 168.791 184.363 169.389 185.915C169.972 187.431 171.039 188.736 172.582 189.508C174.106 190.271 176.408 190.667 179.737 189.8C186.357 188.076 190.655 182.886 191.748 177.286C192.82 171.793 190.828 165.878 184.555 162.292C177.513 158.265 172.016 157.506 168.435 157.644C167.907 157.664 167.418 157.704 166.968 157.757Z" fill="#252429"/>
<path fill-rule="evenodd" clip-rule="evenodd" d="M140.143 170.598C144.975 170.412 151.665 171.488 159.723 176.094C168.55 181.141 171.627 189.902 170.057 197.951C168.507 205.894 162.451 213.113 153.324 215.49C148.78 216.675 144.825 216.314 141.645 214.724C138.483 213.142 136.395 210.495 135.306 207.667C134.232 204.875 134.07 201.756 134.921 199.037C135.781 196.292 137.777 193.747 141.044 192.844C141.043 192.838 141.042 192.832 141.041 192.826C140.88 191.798 140.094 190.117 138.677 187.912C137.402 185.926 135.866 183.883 134.447 181.997C134.363 181.885 134.279 181.774 134.196 181.664C133.471 180.698 132.769 179.76 132.199 178.939C131.672 178.181 131.088 177.289 130.75 176.469C130.118 174.932 130.751 173.166 132.216 172.381L133.742 175.236C132.216 172.381 132.22 172.379 132.22 172.379L132.224 172.377L132.233 172.372L132.254 172.361L132.307 172.334C132.347 172.314 132.396 172.29 132.455 172.262C132.572 172.206 132.727 172.135 132.918 172.054C133.301 171.894 133.831 171.694 134.501 171.494C135.842 171.093 137.743 170.691 140.143 170.598ZM138.925 177.181C139.068 177.372 139.216 177.569 139.368 177.772C139.461 177.895 139.555 178.02 139.65 178.147C141.039 179.992 142.712 182.215 144.122 184.412C145.564 186.658 147.043 189.334 147.434 191.82C147.639 193.124 147.603 194.73 146.74 196.219C145.841 197.769 144.366 198.652 142.783 199.08C142.089 199.268 141.46 199.814 141.097 200.973C140.721 202.173 140.748 203.788 141.346 205.34C141.929 206.855 142.996 208.16 144.539 208.932C146.063 209.695 148.364 210.091 151.694 209.224C158.314 207.5 162.612 202.31 163.705 196.711C164.777 191.217 162.785 185.302 156.512 181.716C149.47 177.689 143.973 176.93 140.392 177.068C139.864 177.089 139.375 177.128 138.925 177.181Z" fill="#252429"/>
<path fill-rule="evenodd" clip-rule="evenodd" d="M113.179 191.102C118.011 190.916 124.702 191.991 132.759 196.598C141.586 201.644 144.663 210.405 143.093 218.455C141.543 226.397 135.487 233.617 126.36 235.993C121.816 237.178 117.862 236.819 114.681 235.227C111.519 233.645 109.431 230.999 108.343 228.169C107.268 225.379 107.106 222.26 107.957 219.541C108.817 216.795 110.814 214.251 114.08 213.347C114.079 213.342 114.079 213.336 114.078 213.33C113.916 212.302 113.13 210.621 111.714 208.415C110.439 206.43 108.902 204.386 107.483 202.501C107.399 202.389 107.316 202.278 107.233 202.167C106.507 201.202 105.805 200.263 105.235 199.443C104.708 198.685 104.124 197.793 103.786 196.973C103.154 195.436 103.787 193.669 105.252 192.885L106.778 195.74C105.252 192.885 105.256 192.883 105.256 192.883L105.26 192.881L105.269 192.876L105.29 192.865L105.343 192.838C105.383 192.818 105.432 192.793 105.491 192.765C105.608 192.709 105.763 192.639 105.954 192.558C106.337 192.398 106.867 192.198 107.537 191.997C108.879 191.596 110.779 191.194 113.179 191.102ZM111.961 197.685C112.104 197.876 112.252 198.073 112.404 198.275C112.497 198.399 112.591 198.524 112.687 198.651C114.075 200.496 115.748 202.719 117.158 204.916C118.6 207.162 120.079 209.838 120.47 212.323C120.675 213.627 120.639 215.233 119.776 216.722C118.878 218.274 117.402 219.157 115.819 219.584C115.126 219.772 114.496 220.318 114.133 221.477C113.757 222.677 113.784 224.291 114.382 225.843C114.965 227.358 116.032 228.664 117.575 229.436C119.1 230.198 121.401 230.595 124.73 229.728C131.35 228.003 135.649 222.815 136.741 217.214C137.813 211.721 135.821 205.806 129.548 202.219C122.506 198.193 117.009 197.434 113.428 197.572C112.901 197.592 112.412 197.632 111.961 197.685Z" fill="#252429"/>
</g>
</g>
<defs>
<clipPath id="clip0_63_3945">
<rect width="604" height="341" fill="white" transform="translate(0 -1)"/>
</clipPath>
</defs>
</svg>
